<svg width="207" height="22" viewBox="0 0 207 22" fill="none" xmlns="http://www.w3.org/2000/svg">
<g filter="url(#filter0_d_303_831)">
<path d="M9.42614 3.67175H8.19318C8.12027 3.31711 7.99266 3.00556 7.81037 2.73709C7.63139 2.46863 7.41264 2.24325 7.15412 2.06096C6.89891 1.87535 6.61553 1.73615 6.30398 1.64334C5.99242 1.55054 5.66761 1.50414 5.32955 1.50414C4.71307 1.50414 4.15459 1.65992 3.65412 1.97147C3.15696 2.28302 2.76089 2.74207 2.46591 3.3486C2.17424 3.95513 2.02841 4.69921 2.02841 5.58084C2.02841 6.46247 2.17424 7.20655 2.46591 7.81309C2.76089 8.41962 3.15696 8.87867 3.65412 9.19022C4.15459 9.50177 4.71307 9.65755 5.32955 9.65755C5.66761 9.65755 5.99242 9.61115 6.30398 9.51834C6.61553 9.42554 6.89891 9.28799 7.15412 9.1057C7.41264 8.9201 7.63139 8.69306 7.81037 8.42459C7.99266 8.15281 8.12027 7.84126 8.19318 7.48993H9.42614C9.33333 8.01029 9.1643 8.47597 8.91903 8.88695C8.67377 9.29794 8.36885 9.64761 8.00426 9.93596C7.63968 10.221 7.23035 10.4381 6.77628 10.5872C6.32552 10.7364 5.84328 10.811 5.32955 10.811C4.46117 10.811 3.68892 10.5988 3.01278 10.1746C2.33665 9.75035 1.80469 9.14713 1.4169 8.36493C1.02912 7.58274 0.835227 6.65471 0.835227 5.58084C0.835227 4.50698 1.02912 3.57895 1.4169 2.79675C1.80469 2.01456 2.33665 1.41134 3.01278 0.987094C3.68892 0.562851 4.46117 0.35073 5.32955 0.35073C5.84328 0.35073 6.32552 0.425304 6.77628 0.574452C7.23035 0.723599 7.63968 0.942349 8.00426 1.2307C8.36885 1.51574 8.67377 1.86375 8.91903 2.27474C9.1643 2.68241 9.33333 3.14808 9.42614 3.67175ZM14.3617 10.8308C13.6723 10.8308 13.0674 10.6668 12.5471 10.3387C12.03 10.0105 11.6257 9.55149 11.334 8.96153C11.0456 8.37156 10.9015 7.68217 10.9015 6.89334C10.9015 6.09789 11.0456 5.40352 11.334 4.81025C11.6257 4.21697 12.03 3.75627 12.5471 3.42815C13.0674 3.10002 13.6723 2.93596 14.3617 2.93596C15.0511 2.93596 15.6543 3.10002 16.1713 3.42815C16.6917 3.75627 17.0961 4.21697 17.3844 4.81025C17.6761 5.40352 17.8219 6.09789 17.8219 6.89334C17.8219 7.68217 17.6761 8.37156 17.3844 8.96153C17.0961 9.55149 16.6917 10.0105 16.1713 10.3387C15.6543 10.6668 15.0511 10.8308 14.3617 10.8308ZM14.3617 9.77687C14.8854 9.77687 15.3162 9.64263 15.6543 9.37417C15.9924 9.1057 16.2426 8.75272 16.405 8.31522C16.5674 7.87772 16.6486 7.40376 16.6486 6.89334C16.6486 6.38293 16.5674 5.90731 16.405 5.4665C16.2426 5.02568 15.9924 4.66939 15.6543 4.3976C15.3162 4.12582 14.8854 3.98993 14.3617 3.98993C13.838 3.98993 13.4071 4.12582 13.0691 4.3976C12.731 4.66939 12.4808 5.02568 12.3184 5.4665C12.156 5.90731 12.0748 6.38293 12.0748 6.89334C12.0748 7.40376 12.156 7.87772 12.3184 8.31522C12.4808 8.75272 12.731 9.1057 13.0691 9.37417C13.4071 9.64263 13.838 9.77687 14.3617 9.77687ZM19.6129 13.5354V3.03539H20.7464V4.24846H20.8857C20.9718 4.11588 21.0911 3.94685 21.2436 3.74135C21.3994 3.53255 21.6214 3.34694 21.9098 3.18454C22.2015 3.01882 22.5959 2.93596 23.093 2.93596C23.736 2.93596 24.3028 3.09671 24.7933 3.4182C25.2839 3.7397 25.6667 4.19543 25.9418 4.78539C26.2169 5.37535 26.3544 6.07137 26.3544 6.87346C26.3544 7.68217 26.2169 8.38316 25.9418 8.97644C25.6667 9.5664 25.2855 10.0238 24.7983 10.3486C24.3111 10.6701 23.7493 10.8308 23.1129 10.8308C22.6224 10.8308 22.2296 10.7496 21.9347 10.5872C21.6397 10.4215 21.4126 10.2343 21.2536 10.0254C21.0945 9.81332 20.9718 9.63766 20.8857 9.49846H20.7862V13.5354H19.6129ZM20.7663 6.85357C20.7663 7.43028 20.8509 7.93904 21.0199 8.37985C21.1889 8.81735 21.4358 9.16039 21.7607 9.40897C22.0855 9.65423 22.4832 9.77687 22.9538 9.77687C23.4444 9.77687 23.8537 9.64761 24.1818 9.38908C24.5133 9.12725 24.7618 8.77592 24.9276 8.33511C25.0966 7.89098 25.1811 7.39713 25.1811 6.85357C25.1811 6.31664 25.0982 5.83274 24.9325 5.40187C24.7701 4.96768 24.5232 4.62464 24.1918 4.37275C23.8636 4.11754 23.451 3.98993 22.9538 3.98993C22.4766 3.98993 22.0755 4.11091 21.7507 4.35286C21.4259 4.5915 21.1806 4.92625 21.0149 5.35712C20.8492 5.78468 20.7663 6.2835 20.7663 6.85357ZM28.6264 13.5354C28.4276 13.5354 28.2502 13.5188 28.0945 13.4857C27.9387 13.4558 27.831 13.426 27.7713 13.3962L28.0696 12.3621C28.3546 12.435 28.6065 12.4615 28.8253 12.4416C29.044 12.4218 29.2379 12.324 29.407 12.1483C29.5793 11.976 29.7367 11.6959 29.8793 11.3081L30.098 10.7115L27.2741 3.03539H28.5469L30.6548 9.12062H30.7344L32.8423 3.03539H34.1151L30.8736 11.7854C30.7277 12.1798 30.5471 12.5063 30.3317 12.7648C30.1162 13.0266 29.866 13.2205 29.581 13.3465C29.2992 13.4724 28.9811 13.5354 28.6264 13.5354ZM35.6637 10.6718V3.03539H36.7972V4.1888H36.8768C37.016 3.81096 37.2679 3.50438 37.6325 3.26905C37.997 3.03373 38.408 2.91607 38.8654 2.91607C38.9516 2.91607 39.0593 2.91773 39.1886 2.92104C39.3178 2.92436 39.4156 2.92933 39.4819 2.93596V4.12914C39.4421 4.1192 39.351 4.10428 39.2085 4.08439C39.0692 4.06119 38.9218 4.04959 38.766 4.04959C38.3948 4.04959 38.0633 4.12748 37.7717 4.28326C37.4833 4.43572 37.2546 4.64784 37.0856 4.91962C36.9199 5.18809 36.837 5.49467 36.837 5.83937V10.6718H35.6637ZM40.8727 10.6718V3.03539H42.046V10.6718H40.8727ZM41.4693 1.76266C41.2406 1.76266 41.0434 1.68477 40.8777 1.529C40.7153 1.37322 40.6341 1.18596 40.6341 0.967208C40.6341 0.748458 40.7153 0.561194 40.8777 0.405417C41.0434 0.249641 41.2406 0.171753 41.4693 0.171753C41.698 0.171753 41.8935 0.249641 42.0559 0.405417C42.2217 0.561194 42.3045 0.748458 42.3045 0.967208C42.3045 1.18596 42.2217 1.37322 42.0559 1.529C41.8935 1.68477 41.698 1.76266 41.4693 1.76266ZM47.2773 13.6945C46.7106 13.6945 46.2234 13.6216 45.8157 13.4757C45.408 13.3332 45.0683 13.1443 44.7965 12.909C44.5281 12.677 44.3143 12.4284 44.1552 12.1632L45.0898 11.507C45.1959 11.6462 45.3301 11.8053 45.4925 11.9843C45.6549 12.1665 45.877 12.324 46.1587 12.4566C46.4438 12.5924 46.8166 12.6604 47.2773 12.6604C47.8938 12.6604 48.4026 12.5112 48.8036 12.2129C49.2047 11.9147 49.4052 11.4473 49.4052 10.811V9.25982H49.3058C49.2196 9.39903 49.0969 9.57137 48.9379 9.77687C48.7821 9.97904 48.5567 10.1597 48.2617 10.3188C47.9701 10.4745 47.5756 10.5524 47.0785 10.5524C46.462 10.5524 45.9085 10.4066 45.418 10.1149C44.9308 9.82327 44.5446 9.39903 44.2596 8.84221C43.9779 8.28539 43.837 7.60925 43.837 6.8138C43.837 6.0316 43.9746 5.35049 44.2496 4.77047C44.5247 4.18714 44.9076 3.73638 45.3981 3.4182C45.8886 3.09671 46.4554 2.93596 47.0984 2.93596C47.5955 2.93596 47.9899 3.01882 48.2816 3.18454C48.5766 3.34694 48.802 3.53255 48.9577 3.74135C49.1168 3.94685 49.2395 4.11588 49.3256 4.24846H49.445V3.03539H50.5785V10.8905C50.5785 11.5468 50.4293 12.0804 50.131 12.4914C49.8361 12.9057 49.4383 13.2089 48.9379 13.4012C48.4407 13.5967 47.8872 13.6945 47.2773 13.6945ZM47.2376 9.49846C47.7082 9.49846 48.1059 9.39074 48.4308 9.1753C48.7556 8.95987 49.0025 8.64997 49.1715 8.24562C49.3406 7.84126 49.4251 7.35736 49.4251 6.79391C49.4251 6.24372 49.3422 5.75816 49.1765 5.33724C49.0108 4.91631 48.7655 4.58653 48.4407 4.34789C48.1159 4.10925 47.7148 3.98993 47.2376 3.98993C46.7404 3.98993 46.3261 4.11588 45.9947 4.36778C45.6665 4.61967 45.4196 4.95774 45.2539 5.38198C45.0915 5.80622 45.0103 6.27687 45.0103 6.79391C45.0103 7.32421 45.0932 7.7932 45.2589 8.20087C45.4279 8.60523 45.6765 8.92341 46.0046 9.15542C46.3361 9.38411 46.747 9.49846 47.2376 9.49846ZM53.8995 6.078V10.6718H52.7262V0.489934H53.8995V4.22857H53.9989C54.1779 3.83416 54.4464 3.52095 54.8043 3.28894C55.1656 3.05362 55.6462 2.93596 56.2461 2.93596C56.7665 2.93596 57.2222 3.04036 57.6133 3.24917C58.0044 3.45466 58.3076 3.77118 58.5231 4.19874C58.7418 4.62298 58.8512 5.16323 58.8512 5.81948V10.6718H57.6779V5.89903C57.6779 5.29249 57.5205 4.8235 57.2056 4.49207C56.8941 4.15731 56.4615 3.98993 55.908 3.98993C55.5236 3.98993 55.1789 4.07114 54.8739 4.23354C54.5723 4.39595 54.3337 4.63293 54.158 4.94448C53.9857 5.25603 53.8995 5.63387 53.8995 6.078ZM64.3187 3.03539V4.02971H60.3613V3.03539H64.3187ZM61.5147 1.20584H62.688V8.48425C62.688 8.81569 62.7361 9.06427 62.8322 9.22999C62.9316 9.3924 63.0576 9.50177 63.21 9.55812C63.3658 9.61115 63.5299 9.63766 63.7022 9.63766C63.8315 9.63766 63.9376 9.63103 64.0204 9.61778C64.1033 9.6012 64.1696 9.58795 64.2193 9.578L64.4579 10.632C64.3784 10.6618 64.2673 10.6916 64.1248 10.7215C63.9823 10.7546 63.8017 10.7712 63.5829 10.7712C63.2515 10.7712 62.9267 10.6999 62.6085 10.5574C62.2936 10.4149 62.0318 10.1978 61.823 9.90613C61.6175 9.61446 61.5147 9.24656 61.5147 8.80243V1.20584ZM72.4473 5.58084C72.4473 5.03728 72.5798 4.54178 72.845 4.09434C73.1101 3.64689 73.4664 3.2906 73.9139 3.02545C74.3613 2.76029 74.8568 2.62772 75.4004 2.62772C75.871 2.62772 76.3052 2.72881 76.7029 2.93099C77.104 3.13316 77.4354 3.40992 77.6973 3.76124C77.9591 4.10925 78.1215 4.50367 78.1845 4.94448H76.9814C76.9151 4.6031 76.7311 4.32469 76.4295 4.10925C76.1279 3.8905 75.7849 3.78113 75.4004 3.78113C75.069 3.78113 74.7673 3.86233 74.4956 4.02474C74.2238 4.18714 74.0067 4.40423 73.8443 4.67601C73.6819 4.94779 73.6007 5.2494 73.6007 5.58084C73.6007 5.91228 73.6819 6.21389 73.8443 6.48567C74.0067 6.75745 74.2238 6.97455 74.4956 7.13695C74.7673 7.29936 75.069 7.38056 75.4004 7.38056C75.7849 7.38056 76.1097 7.27284 76.3748 7.05741C76.6433 6.83866 76.8123 6.55859 76.8819 6.21721H78.085C78.0221 6.65802 77.868 7.05409 77.6227 7.40542C77.3774 7.75343 77.0626 8.02852 76.6781 8.2307C76.2969 8.43288 75.871 8.53397 75.4004 8.53397C74.8568 8.53397 74.3613 8.40139 73.9139 8.13624C73.4664 7.87109 73.1101 7.51479 72.845 7.06735C72.5798 6.61991 72.4473 6.1244 72.4473 5.58084ZM75.3507 10.8308C74.6281 10.8308 73.9487 10.695 73.3123 10.4232C72.6793 10.1514 72.1208 9.77521 71.6369 9.29462C71.1563 8.81072 70.7785 8.25225 70.5034 7.6192C70.2316 6.98615 70.0974 6.3067 70.1007 5.58084C70.104 4.85499 70.2415 4.17554 70.5133 3.54249C70.7884 2.90944 71.1663 2.35262 71.6468 1.87204C72.1274 1.38814 72.6842 1.01029 73.3173 0.738514C73.9503 0.466734 74.6281 0.330844 75.3507 0.330844C76.0765 0.330844 76.756 0.466734 77.389 0.738514C78.0254 1.01029 78.5822 1.38814 79.0595 1.87204C79.5401 2.35262 79.9163 2.90944 80.188 3.54249C80.4598 4.17554 80.5974 4.85499 80.6007 5.58084C80.604 6.3067 80.4698 6.98615 80.198 7.6192C79.9262 8.25225 79.55 8.81072 79.0694 9.29462C78.5888 9.77521 78.0304 10.1514 77.394 10.4232C76.7576 10.695 76.0765 10.8308 75.3507 10.8308ZM75.3507 9.67743C75.9174 9.67743 76.4494 9.57137 76.9466 9.35925C77.4437 9.14713 77.8796 8.85381 78.2541 8.47928C78.6286 8.10475 78.9219 7.67057 79.1341 7.17672C79.3462 6.67957 79.4506 6.14926 79.4473 5.58582C79.444 5.01905 79.3362 4.48709 79.1241 3.98993C78.912 3.49278 78.6187 3.05693 78.2441 2.68241C77.8696 2.30788 77.4354 2.01456 76.9416 1.80243C76.4477 1.59031 75.9174 1.48425 75.3507 1.48425C74.7872 1.48425 74.2586 1.59031 73.7647 1.80243C73.2709 2.01456 72.8367 2.30954 72.4622 2.68738C72.0877 3.0619 71.7927 3.49775 71.5772 3.99491C71.3651 4.48875 71.2574 5.01905 71.2541 5.58582C71.2508 6.14595 71.3552 6.67459 71.5673 7.17175C71.7794 7.6656 72.0727 8.09978 72.4473 8.47431C72.8251 8.84884 73.2609 9.14382 73.7548 9.35925C74.252 9.57137 74.7839 9.67743 75.3507 9.67743ZM86.7493 10.6718V9.77687L90.1101 6.09789C90.5045 5.66702 90.8293 5.29249 91.0845 4.97431C91.3397 4.65281 91.5286 4.3512 91.6513 4.06948C91.7772 3.78444 91.8402 3.48615 91.8402 3.17459C91.8402 2.81664 91.754 2.50674 91.5817 2.24491C91.4126 1.98307 91.1806 1.78089 90.8857 1.63837C90.5907 1.49585 90.2592 1.42459 89.8913 1.42459C89.5002 1.42459 89.1589 1.5058 88.8672 1.6682C88.5788 1.82729 88.3551 2.05101 88.196 2.33937C88.0402 2.62772 87.9624 2.96579 87.9624 3.35357H86.7891C86.7891 2.75698 86.9266 2.23331 87.2017 1.78255C87.4768 1.33179 87.8513 0.980464 88.3253 0.728571C88.8026 0.476677 89.3378 0.35073 89.9311 0.35073C90.5277 0.35073 91.0563 0.476677 91.517 0.728571C91.9777 0.980464 92.339 1.32019 92.6009 1.74775C92.8627 2.1753 92.9936 2.65092 92.9936 3.17459C92.9936 3.54912 92.9257 3.91536 92.7898 4.27332C92.6572 4.62796 92.4252 5.02403 92.0938 5.46153C91.7656 5.89571 91.3099 6.42601 90.7266 7.05243L88.4396 9.49846V9.578H93.1726V10.6718H86.7493ZM98.5469 10.811C97.7978 10.811 97.1598 10.6071 96.6328 10.1995C96.1058 9.78847 95.7031 9.19353 95.4247 8.41465C95.1463 7.63245 95.0071 6.68785 95.0071 5.58084C95.0071 4.48046 95.1463 3.54083 95.4247 2.76195C95.7064 1.97975 96.1108 1.38316 96.6378 0.972178C97.1681 0.557879 97.8045 0.35073 98.5469 0.35073C99.2893 0.35073 99.924 0.557879 100.451 0.972178C100.981 1.38316 101.386 1.97975 101.664 2.76195C101.946 3.54083 102.087 4.48046 102.087 5.58084C102.087 6.68785 101.947 7.63245 101.669 8.41465C101.391 9.19353 100.988 9.78847 100.461 10.1995C99.9339 10.6071 99.2959 10.811 98.5469 10.811ZM98.5469 9.71721C99.2893 9.71721 99.866 9.35925 100.277 8.64334C100.688 7.92743 100.893 6.9066 100.893 5.58084C100.893 4.69921 100.799 3.9485 100.61 3.32871C100.424 2.70892 100.156 2.23662 99.8047 1.91181C99.4567 1.587 99.0374 1.42459 98.5469 1.42459C97.8111 1.42459 97.236 1.78752 96.8217 2.51337C96.4074 3.23591 96.2003 4.2584 96.2003 5.58084C96.2003 6.46247 96.2931 7.21153 96.4787 7.828C96.6643 8.44448 96.9311 8.91347 97.2791 9.23496C97.6304 9.55646 98.053 9.71721 98.5469 9.71721ZM103.976 10.6718V9.77687L107.337 6.09789C107.731 5.66702 108.056 5.29249 108.311 4.97431C108.566 4.65281 108.755 4.3512 108.878 4.06948C109.004 3.78444 109.067 3.48615 109.067 3.17459C109.067 2.81664 108.981 2.50674 108.808 2.24491C108.639 1.98307 108.407 1.78089 108.112 1.63837C107.817 1.49585 107.486 1.42459 107.118 1.42459C106.727 1.42459 106.385 1.5058 106.094 1.6682C105.805 1.82729 105.582 2.05101 105.423 2.33937C105.267 2.62772 105.189 2.96579 105.189 3.35357H104.016C104.016 2.75698 104.153 2.23331 104.428 1.78255C104.703 1.33179 105.078 0.980464 105.552 0.728571C106.029 0.476677 106.564 0.35073 107.158 0.35073C107.754 0.35073 108.283 0.476677 108.744 0.728571C109.204 0.980464 109.566 1.32019 109.827 1.74775C110.089 2.1753 110.22 2.65092 110.22 3.17459C110.22 3.54912 110.152 3.91536 110.016 4.27332C109.884 4.62796 109.652 5.02403 109.32 5.46153C108.992 5.89571 108.536 6.42601 107.953 7.05243L105.666 9.49846V9.578H110.399V10.6718H103.976ZM115.773 10.811C115.024 10.811 114.386 10.6071 113.859 10.1995C113.332 9.78847 112.93 9.19353 112.651 8.41465C112.373 7.63245 112.234 6.68785 112.234 5.58084C112.234 4.48046 112.373 3.54083 112.651 2.76195C112.933 1.97975 113.337 1.38316 113.864 0.972178C114.395 0.557879 115.031 0.35073 115.773 0.35073C116.516 0.35073 117.151 0.557879 117.678 0.972178C118.208 1.38316 118.612 1.97975 118.891 2.76195C119.172 3.54083 119.313 4.48046 119.313 5.58084C119.313 6.68785 119.174 7.63245 118.896 8.41465C118.617 9.19353 118.214 9.78847 117.688 10.1995C117.161 10.6071 116.522 10.811 115.773 10.811ZM115.773 9.71721C116.516 9.71721 117.093 9.35925 117.504 8.64334C117.915 7.92743 118.12 6.9066 118.12 5.58084C118.12 4.69921 118.026 3.9485 117.837 3.32871C117.651 2.70892 117.383 2.23662 117.031 1.91181C116.683 1.587 116.264 1.42459 115.773 1.42459C115.038 1.42459 114.463 1.78752 114.048 2.51337C113.634 3.23591 113.427 4.2584 113.427 5.58084C113.427 6.46247 113.52 7.21153 113.705 7.828C113.891 8.44448 114.158 8.91347 114.506 9.23496C114.857 9.55646 115.28 9.71721 115.773 9.71721ZM133.393 0.489934V10.6718H132.2L126.651 2.67743H126.552V10.6718H125.319V0.489934H126.512L132.08 8.50414H132.18V0.489934H133.393ZM138.903 10.8308C138.167 10.8308 137.532 10.6684 136.998 10.3436C136.468 10.0155 136.059 9.55812 135.77 8.97147C135.485 8.38151 135.343 7.69543 135.343 6.91323C135.343 6.13103 135.485 5.44164 135.77 4.84505C136.059 4.24514 136.46 3.77781 136.974 3.44306C137.491 3.10499 138.094 2.93596 138.783 2.93596C139.181 2.93596 139.574 3.00225 139.961 3.13482C140.349 3.2674 140.702 3.48283 141.02 3.78113C141.339 4.07611 141.592 4.46721 141.781 4.95442C141.97 5.44164 142.064 6.04154 142.064 6.75414V7.2513H136.178V6.23709H140.871C140.871 5.80622 140.785 5.42175 140.613 5.08368C140.444 4.74562 140.202 4.47881 139.887 4.28326C139.575 4.08771 139.207 3.98993 138.783 3.98993C138.316 3.98993 137.912 4.10594 137.57 4.33795C137.232 4.56664 136.972 4.86493 136.79 5.23283C136.607 5.60073 136.516 5.99514 136.516 6.41607V7.09221C136.516 7.66891 136.616 8.15779 136.814 8.55883C137.017 8.95655 137.297 9.25982 137.655 9.46863C138.013 9.67412 138.429 9.77687 138.903 9.77687C139.211 9.77687 139.489 9.73378 139.738 9.64761C139.99 9.55812 140.207 9.42554 140.389 9.24988C140.571 9.0709 140.712 8.84884 140.812 8.58368L141.945 8.90187C141.826 9.28634 141.625 9.6244 141.344 9.91607C141.062 10.2044 140.714 10.4298 140.3 10.5922C139.885 10.7513 139.42 10.8308 138.903 10.8308ZM144.519 3.03539L146.349 6.15755L148.178 3.03539H149.531L147.065 6.85357L149.531 10.6718H148.178L146.349 7.70868L144.519 10.6718H143.167L145.593 6.85357L143.167 3.03539H144.519ZM153.993 10.8308C153.277 10.8308 152.66 10.6618 152.143 10.3237C151.626 9.98567 151.228 9.52 150.95 8.92672C150.672 8.33345 150.532 7.65565 150.532 6.89334C150.532 6.11778 150.675 5.43335 150.96 4.84008C151.248 4.24349 151.649 3.77781 152.163 3.44306C152.68 3.10499 153.283 2.93596 153.973 2.93596C154.51 2.93596 154.993 3.03539 155.424 3.23425C155.855 3.43312 156.208 3.71153 156.483 4.06948C156.758 4.42743 156.929 4.84505 156.995 5.32232H155.822C155.733 4.97431 155.534 4.66607 155.225 4.3976C154.921 4.12582 154.51 3.98993 153.993 3.98993C153.535 3.98993 153.134 4.10925 152.789 4.34789C152.448 4.58321 152.181 4.91631 151.989 5.34718C151.8 5.77474 151.706 6.27687 151.706 6.85357C151.706 7.44353 151.798 7.95726 151.984 8.39476C152.173 8.83226 152.438 9.17199 152.779 9.41394C153.124 9.65589 153.529 9.77687 153.993 9.77687C154.297 9.77687 154.574 9.72384 154.823 9.61778C155.071 9.51172 155.282 9.35925 155.454 9.16039C155.627 8.96153 155.749 8.72289 155.822 8.44448H156.995C156.929 8.89524 156.765 9.30125 156.503 9.66252C156.245 10.0205 155.902 10.3055 155.474 10.5176C155.05 10.7264 154.556 10.8308 153.993 10.8308ZM161.912 10.8308C161.176 10.8308 160.542 10.6684 160.008 10.3436C159.478 10.0155 159.069 9.55812 158.78 8.97147C158.495 8.38151 158.353 7.69543 158.353 6.91323C158.353 6.13103 158.495 5.44164 158.78 4.84505C159.069 4.24514 159.47 3.77781 159.983 3.44306C160.5 3.10499 161.104 2.93596 161.793 2.93596C162.191 2.93596 162.583 3.00225 162.971 3.13482C163.359 3.2674 163.712 3.48283 164.03 3.78113C164.348 4.07611 164.602 4.46721 164.791 4.95442C164.98 5.44164 165.074 6.04154 165.074 6.75414V7.2513H159.188V6.23709H163.881C163.881 5.80622 163.795 5.42175 163.623 5.08368C163.453 4.74562 163.212 4.47881 162.897 4.28326C162.585 4.08771 162.217 3.98993 161.793 3.98993C161.326 3.98993 160.921 4.10594 160.58 4.33795C160.242 4.56664 159.982 4.86493 159.799 5.23283C159.617 5.60073 159.526 5.99514 159.526 6.41607V7.09221C159.526 7.66891 159.625 8.15779 159.824 8.55883C160.026 8.95655 160.306 9.25982 160.664 9.46863C161.022 9.67412 161.438 9.77687 161.912 9.77687C162.221 9.77687 162.499 9.73378 162.748 9.64761C162.999 9.55812 163.217 9.42554 163.399 9.24988C163.581 9.0709 163.722 8.84884 163.821 8.58368L164.955 8.90187C164.836 9.28634 164.635 9.6244 164.353 9.91607C164.072 10.2044 163.724 10.4298 163.309 10.5922C162.895 10.7513 162.429 10.8308 161.912 10.8308ZM168.032 6.078V10.6718H166.859V3.03539H167.993V4.22857H168.092C168.271 3.84079 168.543 3.52923 168.907 3.29391C169.272 3.05528 169.743 2.93596 170.319 2.93596C170.836 2.93596 171.289 3.04202 171.676 3.25414C172.064 3.46295 172.366 3.78113 172.581 4.20868C172.797 4.63293 172.904 5.16986 172.904 5.81948V10.6718H171.731V5.89903C171.731 5.29912 171.575 4.83179 171.264 4.49704C170.952 4.15897 170.525 3.98993 169.981 3.98993C169.607 3.98993 169.272 4.07114 168.977 4.23354C168.685 4.39595 168.455 4.63293 168.286 4.94448C168.117 5.25603 168.032 5.63387 168.032 6.078ZM178.369 3.03539V4.02971H174.412V3.03539H178.369ZM175.566 1.20584H176.739V8.48425C176.739 8.81569 176.787 9.06427 176.883 9.22999C176.982 9.3924 177.108 9.50177 177.261 9.55812C177.417 9.61115 177.581 9.63766 177.753 9.63766C177.882 9.63766 177.988 9.63103 178.071 9.61778C178.154 9.6012 178.22 9.58795 178.27 9.578L178.509 10.632C178.429 10.6618 178.318 10.6916 178.176 10.7215C178.033 10.7546 177.852 10.7712 177.634 10.7712C177.302 10.7712 176.977 10.6999 176.659 10.5574C176.344 10.4149 176.083 10.1978 175.874 9.90613C175.668 9.61446 175.566 9.24656 175.566 8.80243V1.20584ZM185.245 0.489934V10.6718H184.072V0.489934H185.245ZM190.715 3.03539V4.02971H186.758V3.03539H190.715ZM187.911 1.20584H189.085V8.48425C189.085 8.81569 189.133 9.06427 189.229 9.22999C189.328 9.3924 189.454 9.50177 189.607 9.55812C189.762 9.61115 189.926 9.63766 190.099 9.63766C190.228 9.63766 190.334 9.63103 190.417 9.61778C190.5 9.6012 190.566 9.58795 190.616 9.578L190.854 10.632C190.775 10.6618 190.664 10.6916 190.521 10.7215C190.379 10.7546 190.198 10.7712 189.979 10.7712C189.648 10.7712 189.323 10.6999 189.005 10.5574C188.69 10.4149 188.428 10.1978 188.219 9.90613C188.014 9.61446 187.911 9.24656 187.911 8.80243V1.20584ZM195.282 10.8308C194.645 10.8308 194.083 10.6701 193.596 10.3486C193.109 10.0238 192.728 9.5664 192.453 8.97644C192.178 8.38316 192.04 7.68217 192.04 6.87346C192.04 6.07137 192.178 5.37535 192.453 4.78539C192.728 4.19543 193.111 3.7397 193.601 3.4182C194.092 3.09671 194.658 2.93596 195.301 2.93596C195.799 2.93596 196.191 3.01882 196.48 3.18454C196.771 3.34694 196.993 3.53255 197.146 3.74135C197.302 3.94685 197.423 4.11588 197.509 4.24846H197.608V0.489934H198.782V10.6718H197.648V9.49846H197.509C197.423 9.63766 197.3 9.81332 197.141 10.0254C196.982 10.2343 196.755 10.4215 196.46 10.5872C196.165 10.7496 195.772 10.8308 195.282 10.8308ZM195.441 9.77687C195.911 9.77687 196.309 9.65423 196.634 9.40897C196.959 9.16039 197.206 8.81735 197.375 8.37985C197.544 7.93904 197.628 7.43028 197.628 6.85357C197.628 6.2835 197.545 5.78468 197.38 5.35712C197.214 4.92625 196.969 4.5915 196.644 4.35286C196.319 4.11091 195.918 3.98993 195.441 3.98993C194.944 3.98993 194.529 4.11754 194.198 4.37275C193.87 4.62464 193.623 4.96768 193.457 5.40187C193.295 5.83274 193.213 6.31664 193.213 6.85357C193.213 7.39713 193.296 7.89098 193.462 8.33511C193.631 8.77592 193.88 9.12725 194.208 9.38908C194.539 9.64761 194.95 9.77687 195.441 9.77687ZM201.949 10.7513C201.703 10.7513 201.493 10.6635 201.317 10.4878C201.141 10.3121 201.054 10.1017 201.054 9.85641C201.054 9.61115 201.141 9.40068 201.317 9.22502C201.493 9.04936 201.703 8.96153 201.949 8.96153C202.194 8.96153 202.404 9.04936 202.58 9.22502C202.756 9.40068 202.843 9.61115 202.843 9.85641C202.843 10.0188 202.802 10.168 202.719 10.3039C202.64 10.4397 202.532 10.5491 202.396 10.632C202.263 10.7115 202.114 10.7513 201.949 10.7513Z" fill="#F5F7FA"/>
</g>
<defs>
<filter id="filter0_d_303_831" x="-3.16479" y="0.171753" width="210.008" height="21.5227" filterUnits="userSpaceOnUse" color-interpolation-filters="sRGB">
<feFlood flood-opacity="0" result="BackgroundImageFix"/>
<feColorMatrix in="SourceAlpha" type="matrix" values="0 0 0 0 0 0 0 0 0 0 0 0 0 0 0 0 0 0 127 0" result="hardAlpha"/>
<feOffset dy="4"/>
<feGaussianBlur stdDeviation="2"/>
<feComposite in2="hardAlpha" operator="out"/>
<feColorMatrix type="matrix" values="0 0 0 0 0 0 0 0 0 0 0 0 0 0 0 0 0 0 0.25 0"/>
<feBlend mode="normal" in2="BackgroundImageFix" result="effect1_dropShadow_303_831"/>
<feBlend mode="normal" in="SourceGraphic" in2="effect1_dropShadow_303_831" result="shape"/>
</filter>
</defs>
</svg>
